<?xml version="1.0" standalone="no"?>
<!DOCTYPE svg PUBLIC "-//W3C//DTD SVG 20010904//EN"
 "http://www.w3.org/TR/2001/REC-SVG-20010904/DTD/svg10.dtd">
<svg version="1.0" xmlns="http://www.w3.org/2000/svg"
 width="300.000000pt" height="300.000000pt" viewBox="0 0 300.000000 300.000000"
 preserveAspectRatio="xMidYMid meet">
<metadata>
Created by potrace 1.10, written by Peter Selinger 2001-2011
</metadata>
<g transform="translate(0.000000,300.000000) scale(0.100000,-0.100000)"
fill="#000000" stroke="none">
<path d="M1500 2723 c-25 -15 -46 -30 -48 -35 -2 -4 -8 -8 -13 -8 -8 0 -93
-54 -174 -110 -79 -54 -317 -210 -321 -210 -6 0 -88 -56 -111 -75 -6 -5 -29
-21 -51 -34 -39 -23 -92 -92 -92 -119 0 -8 18 -32 40 -54 40 -40 57 -44 120
-27 9 2 15 -2 14 -13 -2 -24 40 -60 70 -60 13 0 40 12 60 27 28 21 40 25 48
17 7 -7 9 -12 4 -12 -4 0 0 -10 8 -22 23 -32 21 -34 -29 -30 -30 3 -54 -1 -70
-12 -33 -22 -44 -20 -67 9 -11 14 -26 25 -33 25 -22 0 -55 -50 -49 -75 5 -20
2 -22 -41 -23 l-47 0 41 39 c47 45 50 60 18 89 -18 18 -30 20 -65 15 -42 -6
-42 -6 -42 25 0 46 -38 80 -90 80 -37 0 -96 -21 -110 -39 -3 -4 -21 -17 -40
-28 -19 -12 -48 -35 -64 -52 l-30 -31 3 -487 c1 -317 6 -500 13 -523 36 -118
53 -142 126 -186 566 -344 1026 -613 1059 -620 19 -4 42 0 63 11 40 21 920
571 1001 626 60 40 70 59 102 187 13 53 15 148 17 573 0 336 -3 509 -9 505 -6
-4 -15 3 -21 14 -6 11 -18 20 -27 20 -9 0 -29 16 -46 35 -16 19 -63 56 -105
81 -41 25 -81 52 -89 60 -8 8 -19 14 -24 14 -8 0 -87 47 -99 60 -3 3 -14 10
-25 17 -30 18 -327 201 -414 256 -42 26 -85 52 -96 58 -11 5 -42 23 -70 39
-67 39 -132 41 -195 3z m429 -185 c571 -350 663 -410 677 -443 10 -24 12 -149
12 -545 0 -283 -4 -522 -9 -531 -9 -19 -100 -79 -117 -79 -26 0 -9 31 33 62
l44 33 1 521 c0 402 -3 524 -12 536 -27 32 -936 588 -963 588 -11 0 -184 -108
-385 -239 -482 -315 -446 -289 -428 -308 19 -19 30 -14 210 103 73 48 187 122
254 165 176 115 186 111 182 -72 -3 -116 -4 -124 -23 -124 -19 0 -20 7 -20
118 0 64 -1 117 -3 117 -1 0 -28 -18 -60 -39 -230 -157 -498 -321 -524 -321
-60 0 -89 67 -45 107 12 12 141 99 287 194 146 94 306 199 355 232 131 88 166
107 204 107 26 0 98 -39 330 -182z m-316 78 c4 -10 -7 -23 -28 -36 l-34 -21
-3 -142 c-3 -134 -4 -142 -23 -142 -19 0 -20 8 -23 138 -3 151 1 167 51 197
38 24 53 25 60 6z m72 -26 c3 -5 -1 -20 -9 -31 -13 -19 -13 -25 2 -56 16 -33
15 -35 -1 -45 -10 -5 -33 -23 -52 -39 -18 -16 -35 -26 -38 -22 -9 16 -6 106 4
127 15 28 61 75 76 75 6 1 15 -3 18 -9z m-225 -77 l0 -37 -21 21 c-19 18 -20
23 -8 37 22 24 29 19 29 -21z m407 -45 c133 -81 155 -100 136 -119 -6 -6 -60
21 -147 75 -157 97 -168 105 -160 117 11 19 41 6 171 -73z m-120 -48 c3 -18
-95 -83 -114 -76 -25 10 -13 33 35 64 50 32 75 36 79 12z m73 -25 c11 -13 8
-15 -18 -15 -24 0 -30 4 -26 15 4 8 12 15 19 15 7 0 18 -7 25 -15z m-473 -69
c1 -20 -2 -26 -14 -24 -26 5 -41 37 -23 48 22 14 34 7 37 -24z m740 18 c6 -19
-51 -76 -70 -68 -24 9 -21 23 10 56 27 28 53 33 60 12z m-472 -74 c-26 -27
-32 -54 -15 -65 24 -15 5 -20 -68 -19 -97 1 -98 2 -84 16 7 7 12 22 12 33 0
31 10 36 34 20 11 -8 26 -15 32 -15 21 0 54 37 54 62 0 36 11 41 37 16 l23
-22 -25 -26z m278 54 c65 -33 97 -64 97 -93 0 -42 -31 -65 -77 -57 -82 14 -78
15 -81 -37 -2 -32 -8 -50 -19 -54 -37 -14 -46 78 -12 122 19 23 27 26 58 21
75 -11 84 -11 88 1 5 14 -67 61 -106 69 -31 6 -64 -8 -148 -64 -50 -33 -73
-35 -73 -7 0 8 37 37 82 64 90 56 134 64 191 35z m263 -36 c8 -13 -43 -58 -67
-58 -32 0 -30 30 4 50 37 23 53 25 63 8z m-848 -20 c2 -11 -56 -53 -180 -133
-189 -122 -233 -143 -226 -109 3 19 375 265 393 260 6 -1 11 -10 13 -18z m999
-65 c2 -5 -6 -22 -18 -36 l-21 -27 -29 24 c-16 13 -42 27 -59 31 -26 6 -35 2
-55 -21 -25 -29 -25 -31 8 -77 15 -22 16 -31 7 -42 -17 -21 -39 -19 -33 3 6
25 -31 69 -72 82 -40 13 -43 25 -15 60 17 22 22 23 39 13 35 -22 67 -15 107
22 l38 35 50 -28 c27 -16 51 -33 53 -39z m-934 -8 l35 -35 -44 -35 c-28 -23
-54 -57 -71 -95 -16 -33 -32 -60 -37 -60 -17 0 -46 33 -46 52 0 10 6 18 14 18
21 0 76 59 76 81 0 11 -7 22 -15 25 -8 4 -15 11 -15 17 0 12 50 65 62 66 3 1
22 -15 41 -34z m379 -39 c-4 -56 -1 -66 18 -84 13 -12 26 -20 29 -18 3 2 6
-16 6 -40 0 -56 -15 -51 -37 12 -11 33 -32 62 -63 90 -25 22 -45 43 -45 46 0
7 80 58 90 58 3 0 4 -29 2 -64z m471 -27 c15 -16 27 -38 27 -49 0 -63 -70
-119 -170 -135 -65 -11 -65 -11 -93 -64 -32 -59 -59 -74 -116 -65 -45 7 -58
-6 -31 -31 12 -11 46 -20 91 -25 89 -10 124 -33 124 -81 0 -28 -5 -35 -28 -43
-23 -8 -37 -5 -81 19 -58 31 -89 29 -84 -7 2 -16 17 -26 57 -40 109 -36 161
-127 105 -182 -37 -37 -95 -3 -115 67 -15 56 -67 62 -55 6 3 -15 1 -31 -5 -34
-17 -11 -60 24 -75 61 -15 35 -40 45 -50 20 -7 -18 29 -88 53 -102 10 -6 34
-15 52 -19 47 -10 109 -69 117 -111 9 -49 -17 -86 -58 -82 -24 2 -39 13 -63
47 -25 37 -40 47 -79 57 -63 16 -100 53 -118 117 -19 68 -48 78 -48 17 0 -48
25 -102 69 -147 38 -40 42 -98 10 -149 -26 -42 -19 -66 27 -93 43 -26 51 -46
29 -71 -35 -39 -100 -18 -130 40 -19 37 -19 99 -1 119 8 9 18 28 21 44 6 23 2
33 -31 64 -31 29 -39 44 -39 72 0 29 -4 36 -20 36 -17 0 -20 -8 -23 -48 -2
-32 2 -57 12 -73 32 -47 11 -104 -38 -104 -47 0 -65 45 -41 102 5 12 2 20 -9
24 -24 9 -45 -14 -58 -63 -6 -24 -24 -57 -40 -74 -24 -24 -38 -29 -76 -29 -38
0 -63 10 -149 61 -57 34 -103 65 -103 69 0 4 6 12 13 18 9 7 31 -1 80 -30 84
-49 126 -52 166 -14 16 15 33 45 40 66 8 26 27 52 58 77 89 74 111 99 123 142
16 59 10 96 -15 96 -16 0 -21 -8 -25 -45 -10 -75 -46 -111 -124 -123 -47 -7
-86 -41 -86 -74 0 -27 -17 -64 -34 -75 -19 -13 -63 -9 -76 7 -20 24 -24 89 -7
121 23 43 76 89 127 108 72 28 120 84 120 141 0 40 -36 33 -50 -10 -15 -45
-51 -72 -123 -92 -34 -10 -68 -27 -80 -41 -56 -62 -67 -72 -87 -72 -11 0 -30
10 -41 21 -17 17 -20 29 -16 56 10 60 60 97 162 122 28 7 58 20 69 29 46 42
53 104 15 138 -27 25 -99 29 -151 10 -33 -13 -50 -15 -71 -7 -36 14 -46 56
-20 82 19 19 25 20 151 8 160 -15 165 -13 219 98 32 65 46 82 86 107 32 20 65
31 102 34 103 8 208 -69 230 -169 9 -42 58 -79 105 -79 33 0 46 7 83 45 44 44
46 45 112 45 69 0 94 8 133 43 32 29 29 63 -8 82 -29 15 -38 34 -23 48 12 12
47 -4 76 -34z m207 -1 l65 -43 6 -105 c8 -129 -1 -205 -27 -225 -44 -34 -84
-5 -41 30 27 21 27 22 27 148 l0 127 -47 30 -48 29 -3 -24 c-2 -17 -10 -25
-23 -25 -16 0 -19 7 -19 43 0 72 19 75 110 15z m-1155 -8 c0 -22 -76 -62 -92
-48 -20 16 -16 24 20 47 36 23 72 24 72 1z m793 -33 c12 -13 13 -20 4 -29 -9
-9 -21 -8 -52 2 -54 18 -105 -4 -115 -49 -8 -35 -29 -55 -50 -47 -38 14 -4 88
59 128 38 24 128 21 154 -5z m-1446 -4 c21 -19 24 -53 6 -74 -7 -9 -43 -35
-80 -58 -63 -40 -68 -46 -68 -78 0 -34 1 -35 23 -21 159 104 239 149 253 144
8 -3 14 -12 12 -19 -3 -6 -68 -52 -146 -101 l-142 -90 2 -370 3 -370 131 -76
c72 -41 139 -82 148 -89 14 -12 16 -11 16 8 0 26 28 40 41 20 5 -8 9 -28 9
-44 0 -23 7 -35 30 -48 35 -21 53 -17 118 24 25 16 60 29 77 29 36 0 255 -125
255 -145 0 -31 -25 -23 -123 36 -118 72 -141 75 -212 30 -63 -40 -101 -40
-151 -1 -37 30 -216 139 -322 195 -31 17 -55 37 -58 49 -2 12 -3 219 -2 461
l3 440 67 45 c88 59 96 67 74 76 -11 4 -44 -12 -96 -46 -65 -43 -80 -57 -81
-79 -4 -84 3 -929 7 -943 3 -9 118 -88 257 -174 139 -87 304 -192 367 -234
152 -101 406 -263 448 -284 65 -33 75 -29 331 139 219 143 261 175 231 175
-19 0 -10 31 17 54 29 25 27 56 -4 56 -10 0 -56 -25 -101 -55 -83 -55 -122
-68 -122 -41 0 16 173 131 211 141 17 4 33 -1 53 -16 25 -20 28 -27 23 -66
l-5 -44 27 18 c14 9 123 79 241 156 118 76 224 147 235 158 19 19 20 36 25
572 5 533 6 551 23 520 16 -29 17 -75 17 -543 0 -417 -3 -517 -14 -544 -11
-27 -43 -53 -158 -127 -78 -51 -264 -175 -413 -274 -452 -304 -524 -347 -566
-342 -41 5 -160 75 -449 266 -113 74 -308 199 -435 278 -126 79 -243 157 -260
174 l-30 29 0 484 c0 378 3 488 13 507 7 13 47 48 90 77 81 56 121 65 154 35z
m1686 -40 c-5 -25 -28 -28 -28 -4 0 12 6 21 16 21 9 0 14 -7 12 -17z m106 -2
c11 -18 9 -197 -2 -217 -8 -14 -11 -15 -12 -4 0 8 -14 30 -31 48 l-31 33 31
35 c17 19 31 37 31 40 0 3 -9 14 -20 26 -11 12 -20 28 -20 35 0 15 46 18 54 4z
m-1256 -36 c28 -20 52 -40 52 -46 0 -20 -28 -19 -66 2 -62 36 -76 50 -63 66
16 18 17 18 77 -22z m1199 -25 c4 -17 -240 -173 -272 -174 -47 -2 -12 33 110
110 129 82 157 93 162 64z m-1479 -53 c4 -20 -25 -34 -40 -19 -15 15 -1 44 19
40 10 -2 19 -11 21 -21z m1201 -40 c-8 -7 -24 -25 -34 -40 -17 -27 -17 -28 5
-52 13 -14 34 -25 47 -25 27 0 31 -24 6 -38 -12 -7 -22 -3 -41 19 -13 16 -29
29 -36 29 -7 0 -21 6 -31 14 -18 13 -18 14 5 47 30 44 49 59 74 59 19 -1 19
-2 5 -13z m-1175 -14 c9 -21 -16 -37 -27 -17 -9 15 -2 34 13 34 4 0 11 -8 14
-17z m1454 -273 l2 -255 -174 -108 c-184 -114 -227 -133 -279 -121 -50 10
-127 53 -127 69 0 26 28 28 61 4 38 -27 116 -37 150 -19 13 7 93 55 177 107
l152 95 0 215 c0 169 -3 213 -12 207 -60 -36 -118 -76 -123 -84 -3 -6 10 -25
29 -44 57 -53 46 -109 -30 -157 -32 -20 -37 -20 -51 -6 -15 14 -13 18 21 38
64 37 68 69 16 108 -31 22 -39 61 -21 90 13 21 174 120 191 118 13 -2 15 -40
18 -257z m-1518 230 c22 -11 61 -34 87 -50 49 -31 99 -38 135 -19 28 15 70 3
66 -19 -4 -18 -56 -34 -123 -35 -33 -1 -57 8 -118 47 -102 63 -122 63 -221 2
l-77 -49 2 -116 c1 -112 1 -116 -20 -119 -21 -3 -22 -2 -19 130 l3 132 55 37
c129 85 162 94 230 59z m334 -78 c-8 -34 -20 -47 -20 -24 -1 9 -5 30 -9 46 -7
26 -6 27 14 17 17 -9 20 -18 15 -39z m-404 -5 c0 -7 -5 -18 -11 -24 -13 -13 8
-51 34 -59 16 -5 31 2 83 41 23 17 29 -5 10 -39 -19 -36 -14 -59 19 -86 11 -9
14 -22 9 -43 -4 -20 -3 -27 5 -23 7 5 11 -2 11 -16 0 -34 41 -78 71 -74 14 1
30 5 36 9 16 10 22 -3 21 -50 0 -22 3 -50 7 -61 5 -18 2 -22 -13 -22 -24 0
-37 27 -22 45 13 16 -28 65 -54 65 -23 0 -76 -28 -76 -40 0 -17 -27 -11 -34 6
-4 10 -6 57 -5 106 1 79 -1 92 -21 113 -23 25 -33 26 -66 7 -26 -14 -34 -7
-34 26 0 49 -57 81 -88 50 -9 -9 -12 -9 -12 3 0 14 95 78 118 79 6 0 12 -6 12
-13z m1770 -37 c0 -27 -3 -50 -7 -50 -5 0 -21 11 -38 24 l-29 23 29 26 c17 15
33 27 38 27 4 0 7 -22 7 -50z m-1712 7 c4 -21 -25 -34 -40 -19 -8 8 -8 16 2
27 16 19 34 15 38 -8z m1450 -25 c2 -12 -1 -22 -6 -22 -15 0 -34 28 -27 40 10
17 30 6 33 -18z m-1568 -207 c0 -152 -2 -176 -16 -182 -9 -3 -19 -1 -23 5 -3
5 -5 87 -3 181 3 162 4 171 22 171 19 0 20 -8 20 -175z m230 160 c13 -16 6
-35 -15 -35 -18 0 -28 17 -21 35 7 19 20 19 36 0z m1187 -7 c30 -28 29 -49 -2
-78 -31 -29 -32 -59 -4 -89 12 -12 19 -23 18 -25 -2 -1 -20 -13 -39 -26 -67
-45 -76 -73 -34 -115 14 -14 22 -29 19 -34 -10 -17 -112 -71 -133 -71 -21 0
-21 1 3 36 26 38 34 107 15 119 -19 12 -10 23 25 29 38 7 78 51 89 98 5 21 -1
37 -24 70 l-30 42 32 31 c18 18 35 33 37 34 3 0 15 -9 28 -21z m361 10 c7 -7
12 -41 12 -83 0 -42 -5 -76 -12 -83 -15 -15 -64 -16 -73 -2 -9 15 14 40 31 33
11 -4 14 6 14 51 0 48 -3 56 -18 56 -26 0 -34 11 -21 27 14 16 51 17 67 1z
m-1663 -343 c0 -273 0 -280 -20 -280 -19 0 -20 8 -23 270 -1 148 0 276 3 283
3 7 13 12 22 10 17 -3 18 -24 18 -283z m1455 196 c0 -37 -15 -47 -36 -26 -15
15 -15 17 1 35 25 28 35 25 35 -9z m260 -67 c0 -40 -2 -45 -17 -39 -45 19 -60
17 -83 -12 -19 -24 -21 -36 -17 -85 5 -62 1 -67 -38 -42 -22 14 -25 14 -43 -4
-11 -11 -21 -24 -23 -30 -3 -7 -20 -9 -46 -5 -24 3 -40 10 -37 14 3 5 9 7 14
4 12 -8 130 83 130 100 0 8 5 15 10 15 6 0 10 22 10 49 l0 48 40 -7 c34 -6 42
-4 61 16 32 34 39 30 39 -22z m-1994 12 c18 -13 24 -13 48 0 37 19 36 19 36
-21 0 -40 -8 -43 -36 -16 -20 18 -21 18 -45 0 -34 -26 -39 -24 -39 16 0 39 6
42 36 21z m1699 -15 c0 -20 -150 -112 -170 -105 -26 10 -13 26 61 76 67 46
109 57 109 29z m-941 -43 c-4 -7 -18 -27 -30 -45 -13 -17 -24 -38 -24 -46 0
-17 -48 -63 -57 -54 -3 4 5 20 19 35 15 15 31 46 37 69 11 40 21 51 49 52 8 1
10 -4 6 -11z m-714 -73 c5 -68 6 -70 48 -98 45 -30 55 -57 21 -57 -22 0 -75
32 -96 58 -14 17 -18 153 -6 166 17 17 28 -6 33 -69z m408 43 c3 -18 -63 -60
-87 -56 -28 5 -18 27 24 53 43 26 58 27 63 3z m1504 -48 c4 -84 2 -90 -23 -90
-17 0 -19 8 -19 80 0 72 2 80 19 80 17 0 20 -9 23 -70z m-710 -33 c12 -19 10
-26 -17 -53 -35 -35 -31 -57 15 -94 49 -39 152 -61 200 -43 49 18 43 2 -13
-35 -28 -19 -64 -46 -79 -60 l-28 -26 0 34 c0 55 -56 100 -87 69 -14 -14 -38
-1 -77 40 l-29 30 17 42 c10 24 17 61 16 83 -1 23 -1 44 -1 49 1 10 73 -21 83
-36z m-1050 -80 c3 -75 1 -87 -13 -87 -21 0 -31 24 -23 56 5 18 -3 32 -35 65
-23 23 -41 45 -41 49 0 3 24 6 54 6 l55 -1 3 -88z m191 68 c14 0 25 -11 34
-32 8 -20 9 -33 3 -33 -5 0 -10 3 -10 8 0 11 -54 11 -68 -1 -17 -14 -32 7 -32
45 0 29 18 41 39 24 7 -5 23 -10 34 -11z m1455 -48 c4 -22 -27 -35 -38 -16
-10 15 7 42 24 36 6 -2 12 -11 14 -20z m60 -9 c19 -19 15 -24 -35 -54 -113
-65 -148 -111 -108 -144 19 -16 19 -40 0 -54 -27 -20 -26 -54 2 -76 26 -20 68
-27 75 -12 6 14 69 54 75 48 8 -8 16 -1 -123 -94 -119 -80 -174 -106 -174 -83
0 6 8 14 18 17 84 28 114 71 87 125 -14 25 -15 37 -6 51 15 25 14 63 -3 77
-31 26 -127 -13 -160 -64 -21 -32 -20 -48 4 -70 30 -27 24 -83 -7 -79 -7 1
-26 2 -42 3 -28 1 -29 2 -18 31 11 28 9 33 -16 54 -15 13 -27 26 -27 29 0 7
129 87 141 87 5 0 9 5 9 10 0 6 6 10 14 10 7 0 19 7 27 16 7 8 29 24 48 34 43
23 91 63 91 78 0 13 26 23 44 16 7 -3 24 8 37 25 27 34 31 35 47 19z m-1909
-20 c22 -23 20 -32 -10 -48 -17 -10 -19 -7 -19 30 0 22 2 40 5 40 2 0 13 -10
24 -22z m2001 -8 c0 -21 -4 -28 -14 -24 -30 12 -30 54 0 54 9 0 14 -11 14 -30z
m-1436 -96 c100 -58 187 -113 194 -122 18 -24 16 -131 -3 -139 -24 -9 -29 2
-26 60 l2 52 -178 104 c-98 58 -183 109 -190 113 -13 11 -6 38 10 38 6 0 92
-48 191 -106z m363 51 c15 1 34 4 42 6 11 3 17 -9 22 -45 4 -26 10 -55 13 -63
5 -11 -2 -10 -27 5 -125 78 -152 85 -182 52 -27 -29 -12 -64 43 -101 26 -18
49 -35 52 -38 3 -4 29 -17 58 -30 28 -14 52 -27 52 -31 0 -9 -57 -50 -70 -50
-5 0 -10 9 -10 21 0 28 -17 56 -41 70 -16 8 -25 7 -40 -7 -17 -16 -22 -16 -29
-4 -6 8 -10 23 -10 32 0 19 -70 82 -112 100 -42 19 -34 35 20 40 52 5 102 35
122 73 l13 24 28 -28 c19 -19 36 -27 56 -26z m817 49 c9 -3 16 -11 16 -18 0
-6 -78 -60 -173 -119 -94 -60 -180 -114 -189 -120 -13 -9 -20 -9 -30 1 -10 10
-9 16 5 30 12 12 332 222 354 231 1 1 8 -2 17 -5z m223 -50 c4 -13 -149 -114
-172 -114 -20 0 -28 17 -13 30 7 6 42 31 78 55 63 43 99 52 107 29z m-1894
-19 c27 -15 51 -22 65 -19 26 7 43 -23 21 -37 -23 -14 -57 -10 -102 12 -49 25
-60 39 -45 56 14 17 13 17 61 -12z m291 -7 c7 -11 5 -20 -5 -30 -21 -22 -36
-11 -31 23 5 31 19 34 36 7z m1636 -33 c0 -15 -6 -25 -14 -25 -22 0 -30 19
-16 35 18 22 30 18 30 -10z m-1029 -76 c110 -66 139 -80 165 -76 43 7 62 -6
44 -28 -11 -13 -25 -16 -60 -13 -58 6 -310 152 -310 180 0 10 6 18 13 18 7 0
74 -36 148 -81z m-748 21 c31 -34 43 -36 74 -15 20 14 23 13 42 -11 18 -23 19
-28 6 -48 -8 -13 -12 -26 -8 -30 13 -13 -32 7 -50 22 -14 12 -22 13 -43 4 -26
-12 -25 -12 -107 35 -11 6 -25 19 -30 28 -7 14 -6 16 11 11 12 -4 28 1 43 13
31 26 31 26 62 -9z m190 14 c45 -23 67 -44 67 -65 0 -22 -85 -83 -106 -75 -25
10 -15 36 21 53 43 20 44 27 5 43 -35 15 -54 35 -45 50 9 14 21 13 58 -6z
m877 -153 l0 -168 -78 -52 c-114 -75 -135 -68 -130 46 2 52 6 68 18 68 11 0
16 -14 18 -57 2 -32 6 -58 9 -58 4 0 33 17 65 38 l58 37 0 158 c0 150 1 157
20 157 19 0 20 -7 20 -169z m674 134 c7 -18 -159 -129 -180 -121 -27 10 -13
26 68 81 88 59 103 64 112 40z m-1402 -25 c26 -16 51 -30 55 -30 3 0 21 -12
40 -26 26 -20 33 -31 31 -55 -1 -17 -5 -32 -9 -35 -4 -2 -32 9 -63 26 -31 16
-72 32 -91 36 -31 5 -33 8 -24 26 6 12 9 36 6 54 -3 19 -3 34 0 34 3 0 28 -13
55 -30z m1148 -15 c0 -17 -97 -85 -122 -85 -34 0 -18 30 34 65 56 37 88 45 88
20z m-348 -75 c21 -19 21 -20 3 -40 -27 -29 -35 -25 -35 20 0 46 3 47 32 20z
m-474 -141 c2 -130 1 -147 -14 -153 -10 -4 -21 -1 -26 6 -9 16 -11 282 -1 292
4 4 14 5 23 4 13 -3 15 -27 18 -149z m-523 111 c11 -17 -5 -32 -21 -19 -8 6
-14 15 -14 20 0 12 27 11 35 -1z m693 -10 c49 -24 105 -26 122 -5 7 8 16 15
21 15 14 0 11 -104 -3 -118 -15 -15 -38 -16 -38 -1 0 14 -47 59 -62 59 -6 0
-16 -7 -23 -17 -15 -20 -35 -9 -35 20 0 12 -9 28 -20 35 -20 12 -27 32 -12 32
5 0 27 -9 50 -20z m412 -5 c0 -20 -76 -69 -95 -61 -24 9 -18 23 22 51 42 28
73 33 73 10z m247 -1 c2 -6 -15 -23 -37 -38 -69 -46 -106 -19 -40 29 35 25 70
29 77 9z m-1782 -6 c17 -15 134 -88 140 -88 8 0 69 -44 73 -52 2 -5 8 -8 13
-8 6 0 15 -5 22 -10 25 -21 88 -60 97 -60 6 0 10 -5 10 -10 0 -14 -16 -5 -187
101 -78 49 -145 89 -150 89 -4 0 -21 11 -37 23 -24 20 -26 24 -10 24 10 0 23
-4 29 -9z m1070 -88 c0 -68 -2 -75 -20 -75 -18 0 -20 8 -23 64 -4 75 2 94 25
89 15 -3 18 -15 18 -78z m1045 75 c0 -10 -82 -56 -88 -49 -4 4 -2 8 3 10 6 2
24 13 40 23 30 20 45 25 45 16z m-1249 -22 c0 -5 2 -16 4 -25 4 -22 -13 -34
-27 -20 -11 11 -2 52 13 52 5 0 9 -3 10 -7z m553 -38 c3 -8 15 -15 26 -15 11
0 20 -4 20 -10 0 -5 -7 -10 -15 -10 -8 0 -15 -4 -15 -8 0 -5 -12 -14 -26 -21
-25 -11 -26 -10 -20 11 3 13 6 33 6 46 0 25 15 30 24 7z m-924 -60 c-15 -29
-32 -32 -50 -10 -15 18 -15 17 25 31 38 13 42 10 25 -21z m143 21 c7 -17 -18
-41 -32 -32 -16 10 -41 -5 -41 -25 0 -10 10 -24 23 -30 12 -6 122 -74 244
-150 121 -77 228 -139 236 -139 8 0 83 45 167 100 149 97 190 115 190 86 0
-22 -321 -226 -356 -226 -20 0 -106 48 -279 156 -137 86 -255 163 -262 173
-19 25 -16 40 16 72 32 32 85 40 94 15z m90 -28 c19 -13 42 -27 51 -33 14 -9
12 -14 -20 -39 -39 -31 -49 -29 -102 14 l-23 19 22 31 c27 36 29 36 72 8z
m147 -43 c0 -39 -13 -44 -48 -19 -28 19 -28 26 1 40 39 20 47 16 47 -21z m145
-1 c23 -15 27 -15 50 0 32 21 32 21 40 -14 9 -39 42 -70 75 -70 29 0 80 21 80
33 0 4 7 7 15 7 8 0 15 5 15 10 0 19 28 10 43 -13 15 -24 7 -57 -14 -57 -5 0
-20 -9 -32 -20 -33 -32 -63 -35 -93 -11 -26 21 -66 21 -88 0 -6 -5 -16 -9 -23
-9 -10 0 -11 4 -1 19 9 15 8 23 -8 42 -26 32 -39 33 -62 4 -21 -27 -62 -34
-62 -11 0 7 7 19 15 26 8 7 15 28 15 46 0 39 2 40 35 18z m503 -45 c-2 -12
-15 -31 -31 -42 -22 -17 -29 -19 -40 -8 -10 10 -5 18 23 42 41 35 52 36 48 8z
m-592 -79 c70 -44 131 -80 136 -80 4 0 28 13 54 30 36 22 51 27 61 19 7 -6 13
-15 13 -19 0 -14 -102 -70 -127 -70 -26 0 -303 164 -303 179 0 12 12 21 26 21
7 0 70 -36 140 -80z m142 17 c4 -20 -25 -34 -40 -19 -15 15 -1 44 19 40 10 -2
19 -11 21 -21z"/>
<path d="M1577 1993 c-13 -12 -7 -44 8 -49 24 -10 47 14 34 37 -10 19 -30 25
-42 12z"/>
<path d="M1440 1965 c-11 -13 -11 -18 2 -31 20 -20 50 -7 46 20 -4 26 -30 32
-48 11z"/>
<path d="M1690 1855 c-17 -20 -5 -45 20 -45 11 0 23 7 26 15 6 15 -11 45 -26
45 -4 0 -13 -7 -20 -15z"/>
<path d="M1470 1844 c-11 -12 -10 -18 3 -31 8 -9 23 -13 31 -10 21 8 21 43 0
51 -21 8 -20 8 -34 -10z"/>
<path d="M1280 1826 c0 -21 5 -26 26 -26 21 0 25 4 22 23 -2 14 -11 23 -25 25
-19 3 -23 -1 -23 -22z"/>
<path d="M1576 1804 c-9 -22 17 -49 39 -40 10 3 15 15 13 28 -4 29 -42 37 -52
12z"/>
<path d="M1370 1795 c-18 -21 -5 -47 22 -43 26 3 37 36 16 49 -18 12 -24 11
-38 -6z"/>
<path d="M1812 1738 c16 -16 38 -28 51 -28 18 1 15 4 -13 16 -19 8 -42 20 -50
27 -9 7 -3 0 12 -15z"/>
<path d="M1265 1721 c2 -13 -10 -34 -35 -60 -31 -32 -55 -45 -114 -62 -48 -14
-84 -31 -98 -47 l-23 -25 40 26 c22 15 46 27 55 27 8 1 40 9 70 19 41 14 63
29 88 61 33 42 39 64 23 75 -6 3 -8 -3 -6 -14z"/>
<path d="M1734 1715 c-4 -9 -2 -21 4 -27 16 -16 47 -5 47 17 0 26 -42 34 -51
10z"/>
<path d="M1510 1694 c-11 -12 -10 -18 3 -32 16 -15 18 -15 34 0 13 14 14 20 3
32 -7 9 -16 16 -20 16 -4 0 -13 -7 -20 -16z"/>
<path d="M1627 1623 c-13 -12 -7 -44 9 -50 23 -9 48 25 33 44 -12 14 -32 17
-42 6z"/>
<path d="M1830 1599 c0 -17 31 -38 55 -38 17 0 15 2 -7 15 -16 8 -28 19 -28
24 0 6 -4 10 -10 10 -5 0 -10 -5 -10 -11z"/>
<path d="M1920 1556 c0 -2 16 -20 35 -39 28 -28 35 -31 35 -17 0 10 -13 28
-29 39 -28 20 -41 26 -41 17z"/>
<path d="M1296 1515 c-3 -8 -25 -24 -49 -34 -51 -22 -97 -65 -96 -89 0 -14 2
-14 6 -2 10 24 52 57 99 76 24 10 47 26 50 37 7 23 -1 34 -10 12z"/>
<path d="M1720 1429 c0 -28 24 -49 74 -63 34 -10 62 -26 75 -43 12 -14 24 -23
27 -20 11 11 -24 55 -48 62 -52 15 -108 46 -108 60 0 8 -4 15 -10 15 -5 0 -10
-5 -10 -11z"/>
<path d="M1374 1338 c-18 -18 -41 -55 -53 -83 -12 -27 -32 -60 -43 -72 -12
-13 -17 -23 -11 -23 16 0 49 42 71 90 11 25 32 58 47 73 14 15 25 32 23 38 -2
5 -17 -5 -34 -23z"/>
<path d="M2690 871 c0 -47 -9 -60 -69 -100 -77 -52 -961 -606 -1000 -625 -52
-28 -109 -21 -181 22 -724 426 -1006 596 -1042 630 -15 13 -31 41 -36 61 l-9
36 -8 -29 c-6 -23 -3 -39 12 -65 16 -28 18 -41 10 -58 -13 -30 -1 -70 28 -89
31 -20 71 -12 80 16 3 11 11 20 17 20 5 0 62 -32 126 -71 65 -40 131 -80 147
-89 17 -9 80 -47 140 -82 61 -36 151 -90 202 -119 50 -30 151 -89 223 -132
154 -93 176 -101 241 -95 49 5 98 31 289 153 36 23 94 60 130 82 36 22 99 61
140 87 41 26 84 52 95 59 11 7 52 33 92 60 40 26 74 47 77 47 3 0 43 24 88 54
61 40 86 51 96 44 6 -6 12 -17 12 -24 0 -8 11 -16 24 -20 51 -12 110 60 86
106 -9 17 -8 30 3 59 15 37 12 91 -4 91 -5 0 -9 -13 -9 -29z m-10 -136 c0 -24
-42 -75 -61 -75 -20 0 -7 36 23 67 18 18 33 33 35 33 2 0 3 -11 3 -25z m-2270
0 c0 -8 9 -20 20 -27 22 -14 27 -48 7 -48 -24 0 -59 47 -52 69 7 24 25 28 25
6z"/>
</g>
</svg>
